<svg xmlns="http://www.w3.org/2000/svg" width="600" height="400" viewBox="0 0 600 400">
  <style>
    .st0{fill:#f8fafc}.st1{fill:#e2e8f0}.st2{fill:#cbd5e1}.st3{fill:#94a3b8}.st4{fill:#6366f1}.st5{fill:#4f46e5}.st6{fill:#ef4444}.st7{fill:#10b981}
  </style>
  <g id="task_manager">
    <rect class="st0" width="600" height="400"/>
    <rect x="100" y="50" width="400" height="300" rx="10" ry="10" class="st1"/>
    <rect x="120" y="80" width="360" height="50" rx="5" ry="5" class="st2"/>
    <rect x="130" y="95" width="200" height="20" rx="3" ry="3" class="st3"/>
    <rect x="350" y="95" width="120" height="20" rx="3" ry="3" class="st4"/>
    <rect x="120" y="150" width="170" height="180" rx="5" ry="5" class="st2"/>
    <rect x="310" y="150" width="170" height="180" rx="5" ry="5" class="st2"/>
    <rect x="130" y="165" width="150" height="20" rx="3" ry="3" class="st3"/>
    <rect x="320" y="165" width="150" height="20" rx="3" ry="3" class="st3"/>
    <rect x="130" y="195" width="150" height="30" rx="3" ry="3" class="st0"/>
    <rect x="130" y="235" width="150" height="30" rx="3" ry="3" class="st0"/>
    <rect x="130" y="275" width="150" height="30" rx="3" ry="3" class="st0"/>
    <rect x="320" y="195" width="150" height="30" rx="3" ry="3" class="st0"/>
    <rect x="320" y="235" width="150" height="30" rx="3" ry="3" class="st0"/>
    <rect x="320" y="275" width="150" height="30" rx="3" ry="3" class="st0"/>
    <circle cx="145" cy="210" r="8" class="st5"/>
    <circle cx="145" cy="250" r="8" class="st6"/>
    <circle cx="145" cy="290" r="8" class="st7"/>
    <circle cx="335" cy="210" r="8" class="st4"/>
    <circle cx="335" cy="250" r="8" class="st4"/>
    <circle cx="335" cy="290" r="8" class="st4"/>
  </g>
</svg>

